<svg width="64" height="64" viewBox="0 0 64 64" fill="none" xmlns="http://www.w3.org/2000/svg">
<path d="M48.6663 46.0002C53.821 46.0002 57.9997 41.8215 57.9997 36.6668C57.9997 31.5122 53.821 27.3335 48.6663 27.3335C43.5117 27.3335 39.333 31.5122 39.333 36.6668C39.333 41.8215 43.5117 46.0002 48.6663 46.0002Z" fill="#18EBED"/>
<path d="M27.3333 24.6667C32.488 24.6667 36.6667 20.488 36.6667 15.3333C36.6667 10.1787 32.488 6 27.3333 6C22.1787 6 18 10.1787 18 15.3333C18 20.488 22.1787 24.6667 27.3333 24.6667Z" fill="#18EBED"/>
<path d="M6 20.6668L6 27.3335C8.47535 27.3335 10.8493 28.3168 12.5997 30.0672C14.35 31.8175 15.3333 34.1915 15.3333 36.6668C15.3333 39.1422 14.35 41.5162 12.5997 43.2665C10.8493 45.0168 8.47535 46.0002 6 46.0002L6 52.6668C6 54.0813 6.5619 55.4379 7.5621 56.4381C8.56229 57.4383 9.91885 58.0002 11.3333 58.0002H18C18 55.5248 18.9833 53.1508 20.7337 51.4005C22.484 49.6502 24.858 48.6668 27.3333 48.6668C29.8087 48.6668 32.1827 49.6502 33.933 51.4005C35.6833 53.1508 36.6667 55.5248 36.6667 58.0002H43.3333C44.7478 58.0002 46.1044 57.4383 47.1046 56.4381C48.1048 55.4379 48.6667 54.0813 48.6667 52.6668L48.6667 20.6668C48.6667 19.2523 48.1048 17.8958 47.1046 16.8956C46.1044 15.8954 44.7478 15.3335 43.3333 15.3335L11.3333 15.3335C9.91885 15.3335 8.56229 15.8954 7.5621 16.8956C6.5619 17.8958 6 19.2523 6 20.6668Z" fill="#9996FF"/>
<path d="M39.333 36.6668C39.333 39.1422 40.3163 41.5162 42.0667 43.2665C43.817 45.0168 46.191 46.0002 48.6663 46.0002V27.3335C46.191 27.3335 43.817 28.3168 42.0667 30.0672C40.3163 31.8175 39.333 34.1915 39.333 36.6668Z" fill="#6666FF"/>
<path d="M27.3333 24.6668C29.8087 24.6668 32.1827 23.6835 33.933 21.9332C35.6833 20.1828 36.6667 17.8088 36.6667 15.3335L18 15.3335C18 17.8088 18.9833 20.1828 20.7337 21.9332C22.484 23.6835 24.858 24.6668 27.3333 24.6668Z" fill="#6666FF"/>
</svg>
