<svg xmlns="http://www.w3.org/2000/svg" width="28" height="17.492" viewBox="0 0 28 17.492">
    <g>
        <g>
            <path fill="#6842ef" d="M32.876 290.119a1.953 1.953 0 0 1-1.385-.574l-3.918-3.918a1.959 1.959 0 0 1 0-2.771l3.918-3.918a1.959 1.959 0 1 1 2.771 2.77l-2.533 2.534 2.533 2.533a1.959 1.959 0 0 1-1.386 3.344z" transform="translate(-27 -275.906) translate(27 278.775) translate(-27 -278.365)"/>
        </g>
        <g>
            <path fill="#ffd600" d="M46.243 290.119a1.959 1.959 0 0 1-1.386-3.344l2.533-2.533-2.533-2.534a1.959 1.959 0 1 1 2.771-2.77l3.918 3.918a1.959 1.959 0 0 1 0 2.771l-3.918 3.918a1.953 1.953 0 0 1-1.385.574z" transform="translate(-27 -275.906) translate(47.164 278.775) translate(-44.283 -278.365)"/>
        </g>
        <g>
            <path fill="#24cbc7" d="M35.92 293.4a1.959 1.959 0 0 1-1.694-2.939l7.835-13.573a1.959 1.959 0 1 1 3.393 1.959l-7.835 13.573a1.957 1.957 0 0 1-1.699.98z" transform="translate(-27 -275.906) translate(35.123 275.906) translate(-33.962 -275.906)"/>
        </g>
    </g>
</svg>
